<svg xmlns="http://www.w3.org/2000/svg" viewBox="0 0 47 63"><g id="b053e41d-6302-4405-9a68-11d63ff9c3cf" data-name="Layer 2"><g id="a5020472-8dfb-43c5-ace5-d36203f89781" data-name="Layer 1"><g id="b38e8481-0eb8-4274-9f1e-4b1506bf44eb" data-name="f69cbfa8-8d4f-473f-b146-a25c046d0422"><g id="f2b7a8bd-ddda-4d89-bc46-18adf87bb639" data-name="a4881884-58db-41b4-98d5-ac29c1f6da2f"><g id="bc1f0d31-b8b1-4eaf-97a3-372db650e0cd" data-name="b23232ce-d325-4171-8a83-0afddd71a1b0"><g id="a8f119e7-eb90-4297-a34e-1b01b6e19ec6" data-name="a098ac9d-b3dc-4e3a-9856-319699bdd34e"><g id="f6e3b659-b1f5-4ae2-aee7-db6870bca659" data-name="aeac94f3-ff8f-483f-b710-d2eef1b67c07"><path d="M38.5,36.5v22a4,4,0,0,1-4,4h-22a4,4,0,0,1-4-4v-22" style="fill:#fff"/><path d="M34.5,63h-22A4.5,4.5,0,0,1,8,58.5v-16H9v16A3.5,3.5,0,0,0,12.5,62h22A3.5,3.5,0,0,0,38,58.5h0v-16h1v16A4.5,4.5,0,0,1,34.5,63Z"/><path d="M13.5,42.5h-7a6,6,0,0,1-6-6v-16a20.2,20.2,0,0,1,20-20h6a20.2,20.2,0,0,1,20,20v16a6,6,0,0,1-6,6h-7" style="fill:#fff"/><path d="M40.5,43h-7V42h7A5.5,5.5,0,0,0,46,36.5v-16A19.5,19.5,0,0,0,26.5,1h-6A19.5,19.5,0,0,0,1,20.5v16A5.5,5.5,0,0,0,6.5,42h7v1h-7A6.5,6.5,0,0,1,0,36.5v-16A20.5,20.5,0,0,1,20.5,0h6A20.5,20.5,0,0,1,47,20.5v16A6.5,6.5,0,0,1,40.5,43Z"/><rect x="13.5" y="54" width="20" height="1"/><rect x="13.5" y="48" width="20" height="1"/><path d="M10.5,20.5a4,4,0,0,0-4,4v4h11a2.9,2.9,0,0,0,3-2.8V23.5a2.9,2.9,0,0,0-2.8-3H10.5Z"/><path d="M17.5,29H6.5a.5.5,0,0,1-.5-.5v-4A4.5,4.5,0,0,1,10.5,20h7A3.5,3.5,0,0,1,21,23.5h0v2A3.5,3.5,0,0,1,17.5,29ZM7,28H17.5A2.5,2.5,0,0,0,20,25.5v-2A2.5,2.5,0,0,0,17.5,21h-7A3.5,3.5,0,0,0,7,24.5Z"/><path d="M40.5,24.5a4,4,0,0,0-4-4h-7a2.9,2.9,0,0,0-3,2.8v2.2a2.9,2.9,0,0,0,2.8,3H40.5Z"/><path d="M40.5,29h-11A3.5,3.5,0,0,1,26,25.5v-2A3.5,3.5,0,0,1,29.5,20h7A4.5,4.5,0,0,1,41,24.5v4A.5.5,0,0,1,40.5,29Zm-11-8A2.5,2.5,0,0,0,27,23.5v2A2.5,2.5,0,0,0,29.5,28H40V24.5A3.5,3.5,0,0,0,36.5,21Z"/><rect x="21" y="31.5" width="1" height="8"/><rect x="25" y="31.5" width="1" height="8"/><rect x="17" y="48.5" width="1" height="6"/><rect x="21" y="48.5" width="1" height="6"/><rect x="25" y="48.5" width="1" height="6"/><rect x="29" y="48.5" width="1" height="6"/></g></g></g></g></g></g></g></svg>