<svg xmlns="http://www.w3.org/2000/svg" viewBox="0 0 1362.31 971.37"><defs><style>.cls-1{fill:#fff;}</style></defs><title>castle_4</title><g id="Layer_2" data-name="Layer 2"><g id="Layer_7" data-name="Layer 7"><rect x="1343.58" y="969.37" width="18.73" height="2"/><rect x="1070.6" y="969.37" width="230.3" height="2"/><rect x="836.84" y="969.37" width="233.76" height="2"/><path d="M1227.43,970.37h-2c0-33.82-34.5-61.34-76.91-61.34s-76.92,27.52-76.92,61.34h-2c0-34.92,35.4-63.34,78.92-63.34S1227.43,935.45,1227.43,970.37Z"/><polygon points="731.7 155.8 729.7 155.8 729.7 57.46 632.6 57.46 632.6 155.8 630.6 155.8 630.6 55.46 731.7 55.46 731.7 155.8"/><rect x="620.55" y="235.27" width="2" height="238.41"/><polygon points="741.76 891.9 620.55 891.9 620.55 592.89 622.55 592.89 622.55 889.9 739.76 889.9 739.76 592.89 741.76 592.89 741.76 891.9"/><rect x="739.76" y="235.27" width="2" height="238.41"/><path d="M1041.18,971.37H321.12l81.47-81.47H959.71Zm-715.23-2h710.41L958.89,891.9H403.42Z"/><rect x="560.95" y="580.65" width="2" height="302.61" transform="translate(-242.9 280.54) rotate(-23.2)"/><rect x="649.05" y="730.96" width="302.61" height="2" transform="translate(-187.78 1179.08) rotate(-66.79)"/><rect x="295.61" y="740.89" width="314.13" height="2" transform="translate(-394.32 936.6) rotate(-71.56)"/><rect x="456.16" y="353.48" width="251.31" height="2" transform="translate(61.48 794.26) rotate(-71.56)"/><rect x="908.63" y="584.83" width="2" height="314.13" transform="translate(-187.93 325.72) rotate(-18.43)"/><rect x="779.47" y="228.83" width="2" height="251.2" transform="translate(-72.03 264.97) rotate(-18.43)"/><path d="M741.17,236.27h-120L539.67,154.8h283Zm-119.21-2H740.34l77.47-77.47H544.49Z"/><path d="M860.58,593.89H501.73L441.12,472.68H921.18Zm-357.62-2H859.34L918,474.68H444.36Z"/><rect y="969.37" width="1316.92" height="2"/><path d="M1132.15,512.35H1083a17.37,17.37,0,0,1-.94-34.71,9.33,9.33,0,0,1-.06-1.07,15.34,15.34,0,0,1,15.32-15.33c6.62,0,12.85,4.9,14.89,11.43a11.85,11.85,0,0,1,7.62-3.24,13.26,13.26,0,0,1,12.21,8.18h.07a17.37,17.37,0,0,1,0,34.74ZM1083,479.61a15.37,15.37,0,0,0,0,30.74h49.11a15.37,15.37,0,0,0,0-30.74,1.9,1.9,0,0,0-.25,0l-.45.05-.73,0-.24-.69a11.28,11.28,0,0,0-10.61-7.59c-3.09,0-5.63,2-7.49,3.82l-1.33,1.26-.35-1.8c-1.24-6.43-7.1-11.47-13.34-11.47A13.34,13.34,0,0,0,1084,476.57a12.43,12.43,0,0,0,.17,1.78l.19,1.28h-1.15A1.14,1.14,0,0,1,1083,479.61Z"/><path d="M1180.33,889.63h-2v-5.58a49.24,49.24,0,0,0-49.18-49.19h-7.58l1.2-1.6a26.63,26.63,0,0,0,5.38-16.12,26.91,26.91,0,0,0-26.88-26.89,26.59,26.59,0,0,0-16.13,5.38l-.78.59-.61-.77c-14.22-18-33.23-27.5-55-27.5a66,66,0,0,0-65.92,65.91h-2A68,68,0,0,1,1028.78,766c22.07,0,41.39,9.51,55.94,27.51a28.61,28.61,0,0,1,16.55-5.21,28.92,28.92,0,0,1,28.88,28.89,28.63,28.63,0,0,1-4.66,15.72h3.66a51.25,51.25,0,0,1,51.18,51.19Z"/><path d="M910.5,280.46h-2a40.33,40.33,0,0,1,67.21-30l-1.34,1.49a38.32,38.32,0,0,0-63.87,28.56Z"/><rect x="857.08" y="292.56" width="17.47" height="2"/><path d="M857.08,294.56a22.84,22.84,0,0,1-.72-45.67C861.21,235.39,874.8,227,892,227c18.32,0,31.58,13.65,31.58,22.85h-2c0-8.2-12.7-20.85-29.58-20.85-16.62,0-29.65,8.11-34,21.16l-.23.69h-.72a20.84,20.84,0,0,0,0,41.68Z"/><path d="M315.88,488.4H244.72a29.46,29.46,0,0,1-1-58.91,24.75,24.75,0,0,1,24.7-23.73v2a22.75,22.75,0,0,0-22.72,22.72v1h-1a27.46,27.46,0,0,0,0,54.92h71.16Z"/><path d="M978.86,350.29H928.8v-2h50.06a24,24,0,0,0,0-48.06h-1v-1a17.79,17.79,0,0,0-17.77-17.77v-2a19.8,19.8,0,0,1,19.75,18.79,26,26,0,0,1-1,52Z"/><path d="M558.55,270.84c-8.64-24-34-26.58-44.46-26.58A62.07,62.07,0,0,0,469.41,263l-1.43-1.4a64,64,0,0,1,46.11-19.38c23.06,0,39.95,10.17,46.34,27.9Z"/><path d="M450.53,321.44a32.78,32.78,0,1,1,32.78-32.78h-2a30.78,30.78,0,1,0-30.78,30.78Z"/><rect x="450.53" y="319.44" width="63.56" height="2"/><rect x="523.17" y="319.44" width="18.16" height="2"/><polygon points="217.1 965.8 215.41 964.73 389.7 689.53 436.83 754.65 435.21 755.82 389.81 693.1 217.1 965.8"/><polygon points="48.03 965.97 46.62 964.55 166.04 845.14 230.37 909.47 250.96 909.47 250.96 911.47 229.54 911.47 166.04 847.97 48.03 965.97"/><rect x="661.67" y="37.97" width="2" height="18.49"/><rect x="698.64" y="37.97" width="2" height="18.49"/><polygon points="718.13 20.49 694.02 20.49 694.02 2 668.29 2 668.29 20.49 644.18 20.49 644.18 18.49 666.29 18.49 666.29 0 696.02 0 696.02 18.49 718.13 18.49 718.13 20.49"/><polygon points="723.16 38.98 639.14 38.98 629.31 29.14 629.31 0 653.42 0 653.42 2 631.31 2 631.31 28.32 639.97 36.98 722.34 36.98 730.99 28.32 730.99 2 708.88 2 708.88 0 732.99 0 732.99 29.14 723.16 38.98"/><path class="cls-1" d="M681.15,831.05h0a22.72,22.72,0,0,0-22.72,22.72V890.9h14.63v-9.57h8.62v-9.57h8.59V862.2h13.6v28.7h0V853.77A22.72,22.72,0,0,0,681.15,831.05Z"/><path d="M674.06,891.9H657.43V853.77a23.72,23.72,0,0,1,47.44,0V890.9h-2V863.2h-11.6v9.56h-8.59v9.57h-8.62Zm-14.63-2h12.63v-9.57h8.62v-9.57h8.59V861.2h13.6v-7.43a21.72,21.72,0,0,0-43.44,0Z"/><path d="M704.87,891.9H672.06V880.33h32.81Zm-30.81-2h28.81v-7.57H674.06Z"/><path d="M704.87,882.33H680.68V870.76h24.19Zm-22.19-2h20.19v-7.57H682.68Z"/><path d="M704.87,872.76h-15.6V861.2h15.6Zm-13.6-2h11.6V863.2h-11.6Z"/></g></g></svg>