<svg xmlns="http://www.w3.org/2000/svg" viewBox="0 0 279.37 194.21"><defs><style>.cls-1,.cls-4{fill:none;}.cls-1,.cls-2,.cls-3,.cls-4{stroke:#000;}.cls-1,.cls-2{stroke-linejoin:round;}.cls-2,.cls-3{fill:#fff;}.cls-3,.cls-4{stroke-miterlimit:10;}</style></defs><title>swords_3</title><g id="Layer_2" data-name="Layer 2"><g id="Layer_7" data-name="Layer 7"><line class="cls-1" x1="115.93" y1="13.58" x2="75.18" y2="13.58"/><polyline class="cls-2" points="75.72 40.74 256.24 40.74 278.87 27.16 256.24 13.58 75.09 13.58"/><line class="cls-1" x1="75.18" y1="40.74" x2="115.93" y2="40.74"/><line class="cls-1" x1="75.18" y1="54.32" x2="75.18"/><line class="cls-1" x1="61.6" y1="54.32" x2="61.6"/><polyline class="cls-1" points="61.6 18.11 7.29 18.11 0.5 24.89 0.5 29.42 7.29 36.21 61.6 36.21"/><line class="cls-1" x1="48.03" y1="36.21" x2="48.03" y2="18.11"/><line class="cls-1" x1="34.45" y1="36.21" x2="34.45" y2="18.11"/><line class="cls-1" x1="20.87" y1="36.21" x2="20.87" y2="18.11"/><line class="cls-1" x1="88.76" y1="27.16" x2="115.93" y2="27.16"/><line class="cls-1" x1="102.76" y1="27.16" x2="256.24" y2="27.16"/><polygon class="cls-3" points="209.04 192.22 171.8 120.06 178.78 108.42 202.06 99.11 234.65 108.42 246.29 120.06 209.04 192.22"/><polyline class="cls-4" points="246.29 120.06 225.34 129.37 192.75 129.37 171.8 120.06"/><line class="cls-4" x1="202.06" y1="99.11" x2="206.71" y2="110.75"/><polygon class="cls-4" points="225.34 129.37 209.04 192.22 192.75 129.37 206.71 110.75 225.34 129.37"/><path class="cls-1" d="M96.68,135.34a20.65,20.65,0,0,1-28.2,28.21"/><path class="cls-1" d="M60.91,156a20.65,20.65,0,0,1,28.21-28.2"/><polyline class="cls-2" points="78.8 136.81 99.44 122.07 102.39 122.07 102.39 125.02 87.65 145.66"/><polyline class="cls-2" points="78.8 154.51 58.15 169.26 55.2 169.26 55.2 166.31 69.95 145.66"/><circle class="cls-2" cx="78.8" cy="145.66" r="8.85"/><line class="cls-1" x1="77.32" y1="145.66" x2="80.27" y2="145.66"/><circle class="cls-1" cx="78.8" cy="145.66" r="45.72"/><circle class="cls-1" cx="78.8" cy="145.66" r="38.77"/><line class="cls-1" x1="78.8" y1="125.02" x2="78.8" y2="117.64"/><line class="cls-1" x1="58.15" y1="145.66" x2="50.78" y2="145.66"/><line class="cls-1" x1="78.8" y1="166.31" x2="78.8" y2="173.68"/><line class="cls-1" x1="99.44" y1="145.66" x2="106.82" y2="145.66"/></g></g></svg>