<svg xmlns="http://www.w3.org/2000/svg" viewBox="0 0 155.75 209.57"><defs><style>.cls-1{fill:none;}.cls-1,.cls-2{stroke:#000;stroke-linejoin:round;}.cls-2{fill:#fff;}</style></defs><title>potion_3</title><g id="Layer_2" data-name="Layer 2"><g id="Master"><polygon class="cls-1" points="67.78 27.41 61.05 0.5 94.69 0.5 87.97 27.41 67.78 27.41"/><line class="cls-1" x1="61.05" y1="40.87" x2="94.69" y2="40.87"/><path class="cls-1" d="M98.06,20.68a10.1,10.1,0,0,1,0,20.19H94.69V57.69c34.65,7.68,60.56,37.05,60.56,74A77.38,77.38,0,0,1,.5,131.7c0-36.95,25.91-66.33,60.55-74V40.87H57.69a10.1,10.1,0,0,1,0-20.19"/><path class="cls-2" d="M118.24,91.33a10.09,10.09,0,1,1-20.18,0,10.1,10.1,0,0,1-20.19,0,10.09,10.09,0,1,1-20.18,0,10.1,10.1,0,0,1-20.19,0S17.32,98.06,17.32,131.7a60.56,60.56,0,0,0,121.11,0C138.43,98.06,118.24,91.33,118.24,91.33Z"/></g></g></svg>