<svg xmlns="http://www.w3.org/2000/svg" viewBox="0 0 977.91 384.53"><title>magic_2</title><g id="Layer_2" data-name="Layer 2"><g id="Layer_7" data-name="Layer 7"><path d="M199.22,210.36H0v-1H199.22a52.63,52.63,0,0,0,0-105.25H53.12v-1h146.1a53.63,53.63,0,0,1,0,107.25Z"/><path d="M687.31,384.53H383.81a53.63,53.63,0,0,1,0-107.25h303.5v1H383.81a52.63,52.63,0,0,0,0,105.25h303.5Z"/><path d="M374.72,111.28H298.9v-1h75.82a27.07,27.07,0,0,0,0-54.14H333.36a28.07,28.07,0,0,1,0-56.14h34.46V1H333.36a27.07,27.07,0,0,0,0,54.14h41.36a28.07,28.07,0,0,1,0,56.14Z"/><path d="M977.91,329.71H805.25a53.63,53.63,0,1,1,0-107.25h53.12a52.63,52.63,0,1,0,0-105.25H752.12a53.63,53.63,0,0,1,0-107.25H924.78v1H752.12a52.63,52.63,0,0,0,0,105.25H858.37a53.63,53.63,0,1,1,0,107.25H805.25a52.63,52.63,0,1,0,0,105.25H977.91Z"/><rect x="514.61" y="229.39" width="135.46" height="1"/><rect x="373.79" y="164.81" width="55.46" height="1"/><rect x="522.53" y="63.62" width="1" height="45.23"/><rect x="500.42" y="85.74" width="45.23" height="1" transform="translate(92.21 395.1) rotate(-45)"/><rect x="500.42" y="85.74" width="45.23" height="1"/><rect x="522.53" y="63.62" width="1" height="45.23" transform="translate(92.22 395.1) rotate(-45)"/><rect x="226.91" y="285.76" width="1" height="28.21"/><rect x="213.31" y="299.36" width="28.21" height="1" transform="translate(-145.43 248.63) rotate(-45)"/><rect x="213.3" y="299.36" width="28.21" height="1"/><rect x="226.91" y="285.76" width="1" height="28.21" transform="translate(-145.43 248.63) rotate(-45)"/></g></g></svg>